<?xml version="1.0" encoding="UTF-8"?>
<svg version="1.1" xmlns="http://www.w3.org/2000/svg" width="512" height="512">
<path d="M0 0 C0.763125 0.061875 1.52625 0.12375 2.3125 0.1875 C3.32300991 2.99447196 3.26431271 4.43807392 2.6875 7.4375 C2.09483362 13.36416377 4.00968016 17.82463267 7.625 22.5 C11.18593402 26.38545263 15.39158151 29.50530104 19.5612793 32.70043945 C25.00507523 36.8825464 30.18558329 41.32541219 35.33764648 45.85986328 C36.49496277 46.87694173 37.65599727 47.88981241 38.8215332 48.89746094 C40.03325567 49.94588758 41.23159907 51.00976238 42.42578125 52.078125 C44.9704661 53.57437862 46.47355993 53.3306259 49.375 52.9375 C50.23222656 52.82921875 51.08945313 52.7209375 51.97265625 52.609375 C53.07480469 52.47015625 54.17695313 52.3309375 55.3125 52.1875 C58.97750494 51.83513224 62.64463538 51.50860625 66.3125 51.1875 C64.92562467 46.04612775 63.53806995 40.9049395 62.14990234 35.76391602 C61.67836415 34.01722089 61.2070073 32.2704768 60.73583984 30.52368164 C60.05614851 28.00393797 59.3757918 25.48437473 58.6953125 22.96484375 C58.48689728 22.19164291 58.27848206 21.41844208 58.06375122 20.62181091 C57.1329242 17.17761038 56.18435671 13.74350687 55.17138672 10.32250977 C54.37859196 7.4287413 54.1321198 5.16377332 54.3125 2.1875 C55.9625 1.8575 57.6125 1.5275 59.3125 1.1875 C64.84530431 8.59335072 69.20541029 16.32490527 73.375 24.5625 C73.96087891 25.70460938 74.54675781 26.84671875 75.15039062 28.0234375 C75.73111328 29.1578125 76.31183594 30.2921875 76.91015625 31.4609375 C77.48048584 32.57339844 78.05081543 33.68585938 78.63842773 34.83203125 C79.7652093 37.09052414 80.85021541 39.37029138 81.89477539 41.66796875 C82.39614014 42.75464844 82.89750488 43.84132812 83.4140625 44.9609375 C84.0630249 46.42539307 84.0630249 46.42539307 84.72509766 47.91943359 C86.14824572 50.41694136 86.14824572 50.41694136 88.9699707 51.14355469 C91.81426832 51.4584544 94.45916836 51.37004973 97.3125 51.1875 C98.12589844 51.25195312 98.93929687 51.31640625 99.77734375 51.3828125 C105.13968737 51.80446687 107.51060195 50.64919588 111.62890625 47.3203125 C114.61178296 45.31327248 116.87672252 45.56281319 120.3125 46.1875 C123.97333772 48.32018987 126.95009193 51.10027578 128.3125 55.1875 C128.3125 56.1775 128.3125 57.1675 128.3125 58.1875 C129.87409059 58.66962214 131.43681928 59.14805873 133 59.625 C133.87011719 59.89183594 134.74023438 60.15867188 135.63671875 60.43359375 C136.51972656 60.68238281 137.40273437 60.93117187 138.3125 61.1875 C139.49585938 61.62449219 139.49585938 61.62449219 140.703125 62.0703125 C144.75971605 62.25249473 147.25616912 59.94462071 150.375 57.625 C151.80855766 56.5989079 153.24215317 55.57286869 154.67578125 54.546875 C155.43068848 53.99837891 156.1855957 53.44988281 156.96337891 52.88476562 C160.13933921 50.59009965 163.35335299 48.35202641 166.56835938 46.11254883 C169.08419841 44.35988375 171.595466 42.60085511 174.10546875 40.83984375 C179.52705783 37.03679334 184.95055992 33.23648264 190.375 29.4375 C191.22610352 28.84090576 192.07720703 28.24431152 192.95410156 27.62963867 C193.74397461 27.07638916 194.53384766 26.52313965 195.34765625 25.953125 C196.0425415 25.46618164 196.73742676 24.97923828 197.45336914 24.47753906 C202.21810638 21.17131824 202.21810638 21.17131824 204.5 21.5625 C205.098125 21.76875 205.69625 21.975 206.3125 22.1875 C207.0625 24.41796875 207.0625 24.41796875 207.3125 27.1875 C205.6875 29.36328125 205.6875 29.36328125 203.3125 31.5 C200.31610207 34.29756288 197.46130463 37.05766245 194.8125 40.1875 C191.56085372 43.98108733 188.05536906 47.46142647 184.5 50.96875 C181.9161065 53.58955626 179.53345503 56.34329036 177.14453125 59.140625 C174.32813468 62.28730262 171.28039958 65.19068044 168.23046875 68.109375 C166.41890296 70.07221206 165.35187142 71.74580206 164.3125 74.1875 C164.93253906 74.54199219 165.55257812 74.89648438 166.19140625 75.26171875 C172.29876562 78.93324629 177.69414271 83.01560001 183.0625 87.6875 C183.67552979 88.22076904 184.28855957 88.75403809 184.92016602 89.3034668 C191.83575066 95.41311734 198.08714197 101.78053537 203.6875 109.125 C204.24695313 109.8579126 204.80640625 110.5908252 205.3828125 111.34594727 C210.77876423 118.56659082 215.19451735 126.18337822 219.3125 134.1875 C219.86035156 135.25097656 220.40820312 136.31445312 220.97265625 137.41015625 C222.10838683 139.65947224 223.22517377 141.91449642 224.3125 144.1875 C230.13214026 137.90617638 235.71802264 131.53654488 241.09765625 124.87109375 C243.98069874 121.37788354 247.01621924 118.04503312 250.09765625 114.7265625 C252.36437319 112.2227498 252.36437319 112.2227498 254.24609375 109.3984375 C259.96419374 101.30615564 266.22666572 98.54824819 275.12109375 94.9453125 C285.44612701 90.74645054 292.55387089 82.62115473 298.5 73.375 C300.7543016 69.9180013 302.61123656 67.21438236 306.3125 65.1875 C310.5275922 64.37028825 313.39085645 64.65499484 317.125 66.8125 C321.35262861 71.40249677 322.99162117 75.98384254 323.3125 82.1875 C322.0061603 92.3116327 315.0375636 98.7513871 307.9140625 105.55859375 C306.22148352 107.11271066 306.22148352 107.11271066 305.3125 109.1875 C311.9694531 108.09302995 318.36559192 106.70361583 324.8046875 104.67578125 C327.62206039 104.12722734 329.56014841 104.45255307 332.3125 105.1875 C333.03881836 106.93066406 333.03881836 106.93066406 333.3125 109.1875 C331.86547852 111.20214844 331.86547852 111.20214844 329.69140625 113.296875 C328.53608398 114.42802734 328.53608398 114.42802734 327.35742188 115.58203125 C326.53822266 116.35933594 325.71902344 117.13664062 324.875 117.9375 C324.05966797 118.73027344 323.24433594 119.52304688 322.40429688 120.33984375 C320.38439608 122.30068312 318.35377872 124.2489649 316.3125 126.1875 C318.37299855 127.00506238 320.43598853 127.81634734 322.5 128.625 C324.22283203 129.30369141 324.22283203 129.30369141 325.98046875 129.99609375 C334.11989081 132.9064381 340.87734379 132.96234892 348.8359375 129.5 C358.05939773 124.61185704 364.24923734 115.59247791 370.39453125 107.41796875 C372.3125 105.1875 372.3125 105.1875 375.25 104.125 C378.3125 104.1875 378.3125 104.1875 381.25 105.5625 C383.50233886 108.4291131 383.6312269 108.87173872 383.375 112.3125 C380.99218938 125.56959184 373.6094235 136.47083539 362.90625 144.53125 C356.74736069 148.46403474 349.5809187 151.34104863 342.203125 151.28515625 C341.44902344 151.28193359 340.69492187 151.27871094 339.91796875 151.27539062 C339.14066406 151.26701172 338.36335938 151.25863281 337.5625 151.25 C336.76972656 151.24548828 335.97695313 151.24097656 335.16015625 151.23632812 C333.21090492 151.22458565 331.26169262 151.20665146 329.3125 151.1875 C329.9415625 151.97511719 330.570625 152.76273438 331.21875 153.57421875 C354.38333288 182.90540473 368.23189033 216.97999704 363.84375 254.76953125 C359.45410534 285.66939372 341.26113864 312.56377869 316.95043945 331.57104492 C290.35598535 351.47864953 257.87088417 360.65590841 224.9375 360.5625 C224.14670044 360.5612915 223.35590088 360.56008301 222.5411377 360.55883789 C195.06194212 360.4453161 163.26928493 355.16989343 140.6796875 338.2109375 C136.79474114 335.30043313 134.69254971 334.02576362 129.74609375 334.60546875 C126.26838665 335.41517382 122.87884308 336.49037996 119.47412109 337.56054688 C115.88571664 338.60132196 112.24256721 339.24899216 108.5625 339.875 C107.48742187 340.05820801 107.48742187 340.05820801 106.390625 340.24511719 C64.5064081 347.12940146 21.4747749 337.03929331 -13.00927734 312.40917969 C-44.58700123 289.42184621 -65.78708264 255.72065248 -72 217.0625 C-76.51775226 176.48960948 -65.66003136 137.9909268 -40.25634766 106.10839844 C-32.90308134 97.10505275 -25.00142648 89.19024413 -15.6875 82.1875 C-14.52541016 81.30191406 -14.52541016 81.30191406 -13.33984375 80.3984375 C-4.13277057 73.66605344 6.08630205 68.20532384 16.3125 63.1875 C15.55066406 62.47207031 14.78882812 61.75664062 14.00390625 61.01953125 C1.85619413 49.3912222 -9.6932627 36.00952096 -10.25 18.4375 C-10.00860931 11.50816727 -8.83815979 6.8157864 -4.21875 1.49609375 C-2.6875 0.1875 -2.6875 0.1875 0 0 Z " fill="#DB4C3B" transform="translate(100.6875,75.8125)"/>
<path d="M0 0 C4.11810781 0.66752371 7.42702031 2.81168713 10.9375 4.9375 C11.93221313 5.53921021 11.93221313 5.53921021 12.94702148 6.15307617 C19.67467248 10.30113841 25.89710041 14.98541147 32 20 C32.84860596 20.69416016 32.84860596 20.69416016 33.71435547 21.40234375 C63.04610772 45.55501673 89.49202567 77.67413686 93.83666992 116.80493164 C96.0766515 146.90907866 89.99336622 174.68858577 70 198 C69.31164062 198.80953125 68.62328125 199.6190625 67.9140625 200.453125 C47.75682444 223.51017625 18.66845425 240.04628821 -12.32958984 242.23510742 C-50.67072756 243.71058163 -83.11907969 232.59850838 -111.34375 206.52734375 C-112.2203125 205.69332031 -113.096875 204.85929688 -114 204 C-114.53238281 203.49484863 -115.06476563 202.98969727 -115.61328125 202.46923828 C-136.97944839 182.06165482 -136.97944839 182.06165482 -140 173 C-138.71333691 170.68215956 -137.39092836 168.59954335 -135.875 166.4375 C-135.42632568 165.78273682 -134.97765137 165.12797363 -134.51538086 164.45336914 C-133.02465477 162.29180362 -131.51521314 160.1444639 -130 158 C-129.47970215 157.26136719 -128.9594043 156.52273438 -128.42333984 155.76171875 C-121.65660486 146.19117937 -114.6543109 136.84181371 -107.33837891 127.68554688 C-105.97745742 125.97161 -104.63308597 124.24586631 -103.29296875 122.515625 C-98.14012616 115.87248141 -92.84226653 109.39627987 -87.34008789 103.0390625 C-84.33740203 99.56898892 -81.39116454 96.06437795 -78.5 92.5 C-73.63152728 86.50870835 -68.60074324 80.66337422 -63.56152344 74.81591797 C-61.9974147 72.99699352 -60.43918924 71.17319921 -58.8828125 69.34765625 C-54.41768077 64.11360028 -49.94336671 58.90162956 -45.3125 53.8125 C-41.46148995 49.57291957 -37.85156045 45.17067888 -34.25 40.71875 C-32.06498431 38.07852271 -29.80828609 35.5327028 -27.5 33 C-23.66738444 28.79008032 -20.05551165 24.4418872 -16.4765625 20.015625 C-13.05015113 15.84340169 -9.52383946 11.75974477 -5.98510742 7.68261719 C-3.82997878 5.18896248 -1.83089809 2.74634714 0 0 Z " fill="#F6A68E" transform="translate(364,184)"/>
<path d="M0 0 C0.763125 0.061875 1.52625 0.12375 2.3125 0.1875 C3.32300991 2.99447196 3.26431271 4.43807392 2.6875 7.4375 C2.09483362 13.36416377 4.00968016 17.82463267 7.625 22.5 C11.18593402 26.38545263 15.39158151 29.50530104 19.5612793 32.70043945 C25.00507523 36.8825464 30.18558329 41.32541219 35.33764648 45.85986328 C36.49496277 46.87694173 37.65599727 47.88981241 38.8215332 48.89746094 C40.03325567 49.94588758 41.23159907 51.00976238 42.42578125 52.078125 C44.9704661 53.57437862 46.47355993 53.3306259 49.375 52.9375 C50.23222656 52.82921875 51.08945313 52.7209375 51.97265625 52.609375 C53.07480469 52.47015625 54.17695313 52.3309375 55.3125 52.1875 C58.97750494 51.83513224 62.64463538 51.50860625 66.3125 51.1875 C64.92562467 46.04612775 63.53806995 40.9049395 62.14990234 35.76391602 C61.67836415 34.01722089 61.2070073 32.2704768 60.73583984 30.52368164 C60.05614851 28.00393797 59.3757918 25.48437473 58.6953125 22.96484375 C58.48689728 22.19164291 58.27848206 21.41844208 58.06375122 20.62181091 C57.1329242 17.17761038 56.18435671 13.74350687 55.17138672 10.32250977 C54.37859196 7.4287413 54.1321198 5.16377332 54.3125 2.1875 C55.9625 1.8575 57.6125 1.5275 59.3125 1.1875 C64.84530431 8.59335072 69.20541029 16.32490527 73.375 24.5625 C73.96087891 25.70460938 74.54675781 26.84671875 75.15039062 28.0234375 C75.73111328 29.1578125 76.31183594 30.2921875 76.91015625 31.4609375 C77.48048584 32.57339844 78.05081543 33.68585938 78.63842773 34.83203125 C79.7652093 37.09052414 80.85021541 39.37029138 81.89477539 41.66796875 C82.39614014 42.75464844 82.89750488 43.84132812 83.4140625 44.9609375 C84.0630249 46.42539307 84.0630249 46.42539307 84.72509766 47.91943359 C86.14824572 50.41694136 86.14824572 50.41694136 88.9699707 51.14355469 C91.81426832 51.4584544 94.45916836 51.37004973 97.3125 51.1875 C98.12589844 51.25195312 98.93929687 51.31640625 99.77734375 51.3828125 C105.13968737 51.80446687 107.51060195 50.64919588 111.62890625 47.3203125 C114.61178296 45.31327248 116.87672252 45.56281319 120.3125 46.1875 C123.97333772 48.32018987 126.95009193 51.10027578 128.3125 55.1875 C128.3125 56.1775 128.3125 57.1675 128.3125 58.1875 C129.87409059 58.66962214 131.43681928 59.14805873 133 59.625 C133.87011719 59.89183594 134.74023438 60.15867188 135.63671875 60.43359375 C136.51972656 60.68238281 137.40273437 60.93117187 138.3125 61.1875 C139.49585938 61.62449219 139.49585938 61.62449219 140.703125 62.0703125 C144.75971605 62.25249473 147.25616912 59.94462071 150.375 57.625 C151.80855766 56.5989079 153.24215317 55.57286869 154.67578125 54.546875 C155.43068848 53.99837891 156.1855957 53.44988281 156.96337891 52.88476562 C160.13933921 50.59009965 163.35335299 48.35202641 166.56835938 46.11254883 C169.08419841 44.35988375 171.595466 42.60085511 174.10546875 40.83984375 C179.52705783 37.03679334 184.95055992 33.23648264 190.375 29.4375 C191.22610352 28.84090576 192.07720703 28.24431152 192.95410156 27.62963867 C193.74397461 27.07638916 194.53384766 26.52313965 195.34765625 25.953125 C196.0425415 25.46618164 196.73742676 24.97923828 197.45336914 24.47753906 C202.21810638 21.17131824 202.21810638 21.17131824 204.5 21.5625 C205.098125 21.76875 205.69625 21.975 206.3125 22.1875 C207.0625 24.41796875 207.0625 24.41796875 207.3125 27.1875 C205.6875 29.36328125 205.6875 29.36328125 203.3125 31.5 C200.31610207 34.29756288 197.46130463 37.05766245 194.8125 40.1875 C191.56085372 43.98108733 188.05536906 47.46142647 184.5 50.96875 C181.9161065 53.58955626 179.53345503 56.34329036 177.14453125 59.140625 C174.32813468 62.28730262 171.28039958 65.19068044 168.23046875 68.109375 C166.41890296 70.07221206 165.35187142 71.74580206 164.3125 74.1875 C164.93253906 74.54199219 165.55257812 74.89648438 166.19140625 75.26171875 C172.29876562 78.93324629 177.69414271 83.01560001 183.0625 87.6875 C183.67552979 88.22076904 184.28855957 88.75403809 184.92016602 89.3034668 C191.83575066 95.41311734 198.08714197 101.78053537 203.6875 109.125 C204.24695313 109.8579126 204.80640625 110.5908252 205.3828125 111.34594727 C210.77876423 118.56659082 215.19451735 126.18337822 219.3125 134.1875 C219.86035156 135.25097656 220.40820312 136.31445312 220.97265625 137.41015625 C222.10838683 139.65947224 223.22517377 141.91449642 224.3125 144.1875 C230.13214026 137.90617638 235.71802264 131.53654488 241.09765625 124.87109375 C243.98069874 121.37788354 247.01621924 118.04503312 250.09765625 114.7265625 C252.36437319 112.2227498 252.36437319 112.2227498 254.24609375 109.3984375 C259.96419374 101.30615564 266.22666572 98.54824819 275.12109375 94.9453125 C285.44612701 90.74645054 292.55387089 82.62115473 298.5 73.375 C300.7543016 69.9180013 302.61123656 67.21438236 306.3125 65.1875 C310.5275922 64.37028825 313.39085645 64.65499484 317.125 66.8125 C321.35262861 71.40249677 322.99162117 75.98384254 323.3125 82.1875 C322.0061603 92.3116327 315.0375636 98.7513871 307.9140625 105.55859375 C306.22148352 107.11271066 306.22148352 107.11271066 305.3125 109.1875 C311.9694531 108.09302995 318.36559192 106.70361583 324.8046875 104.67578125 C327.62206039 104.12722734 329.56014841 104.45255307 332.3125 105.1875 C333.03881836 106.93066406 333.03881836 106.93066406 333.3125 109.1875 C331.86547852 111.20214844 331.86547852 111.20214844 329.69140625 113.296875 C328.53608398 114.42802734 328.53608398 114.42802734 327.35742188 115.58203125 C326.53822266 116.35933594 325.71902344 117.13664062 324.875 117.9375 C324.05966797 118.73027344 323.24433594 119.52304688 322.40429688 120.33984375 C320.38439608 122.30068312 318.35377872 124.2489649 316.3125 126.1875 C318.37299855 127.00506238 320.43598853 127.81634734 322.5 128.625 C324.22283203 129.30369141 324.22283203 129.30369141 325.98046875 129.99609375 C334.11989081 132.9064381 340.87734379 132.96234892 348.8359375 129.5 C358.05939773 124.61185704 364.24923734 115.59247791 370.39453125 107.41796875 C372.3125 105.1875 372.3125 105.1875 375.25 104.125 C378.3125 104.1875 378.3125 104.1875 381.25 105.5625 C383.50233886 108.4291131 383.6312269 108.87173872 383.375 112.3125 C380.99218938 125.56959184 373.6094235 136.47083539 362.90625 144.53125 C356.74736069 148.46403474 349.5809187 151.34104863 342.203125 151.28515625 C341.44902344 151.28193359 340.69492187 151.27871094 339.91796875 151.27539062 C339.14066406 151.26701172 338.36335938 151.25863281 337.5625 151.25 C336.76972656 151.24548828 335.97695313 151.24097656 335.16015625 151.23632812 C333.21090492 151.22458565 331.26169262 151.20665146 329.3125 151.1875 C329.9415625 151.97511719 330.570625 152.76273438 331.21875 153.57421875 C354.38333288 182.90540473 368.23189033 216.97999704 363.84375 254.76953125 C359.45410534 285.66939372 341.26113864 312.56377869 316.95043945 331.57104492 C290.35598535 351.47864953 257.87088417 360.65590841 224.9375 360.5625 C224.14670044 360.5612915 223.35590088 360.56008301 222.5411377 360.55883789 C195.06194212 360.4453161 163.26928493 355.16989343 140.6796875 338.2109375 C136.79474114 335.30043313 134.69254971 334.02576362 129.74609375 334.60546875 C126.26838665 335.41517382 122.87884308 336.49037996 119.47412109 337.56054688 C115.88571664 338.60132196 112.24256721 339.24899216 108.5625 339.875 C107.48742187 340.05820801 107.48742187 340.05820801 106.390625 340.24511719 C64.5064081 347.12940146 21.4747749 337.03929331 -13.00927734 312.40917969 C-44.58700123 289.42184621 -65.78708264 255.72065248 -72 217.0625 C-76.51775226 176.48960948 -65.66003136 137.9909268 -40.25634766 106.10839844 C-32.90308134 97.10505275 -25.00142648 89.19024413 -15.6875 82.1875 C-14.52541016 81.30191406 -14.52541016 81.30191406 -13.33984375 80.3984375 C-4.13277057 73.66605344 6.08630205 68.20532384 16.3125 63.1875 C15.55066406 62.47207031 14.78882812 61.75664062 14.00390625 61.01953125 C1.85619413 49.3912222 -9.6932627 36.00952096 -10.25 18.4375 C-10.00860931 11.50816727 -8.83815979 6.8157864 -4.21875 1.49609375 C-2.6875 0.1875 -2.6875 0.1875 0 0 Z M-13.6875 89.1875 C-14.52796875 89.90292969 -15.3684375 90.61835938 -16.234375 91.35546875 C-18.77189342 93.58170773 -21.23619403 95.86682789 -23.6875 98.1875 C-24.57179687 99.00734375 -25.45609375 99.8271875 -26.3671875 100.671875 C-44.02778115 117.5820185 -56.53118152 139.54243601 -62.6875 163.1875 C-62.89487793 163.98027344 -63.10225586 164.77304688 -63.31591797 165.58984375 C-70.81599048 195.61384943 -67.29512049 226.49928396 -53.6875 254.1875 C-53.20192627 255.20360352 -53.20192627 255.20360352 -52.70654297 256.24023438 C-36.09165319 290.73703654 -4.36438688 315.61721141 31.3125 328.1875 C36.58179668 329.81100078 41.92732504 331.01149423 47.3125 332.1875 C49.14748047 332.70183594 49.14748047 332.70183594 51.01953125 333.2265625 C72.98525699 338.74186972 105.76297521 338.20395831 126.3125 328.1875 C122.24585493 324.05345198 118.01348575 320.15083187 113.68554688 316.29296875 C107.35188107 310.56443025 107.35188107 310.56443025 105.3125 307.1875 C105.22232821 300.96564639 108.07630631 296.20063412 111.0625 290.9375 C111.54984619 290.06706055 112.03719238 289.19662109 112.53930664 288.29980469 C121.20733688 273.09542944 131.66173379 259.04466591 142.3125 245.1875 C142.87614258 244.45112305 143.43978516 243.71474609 144.02050781 242.95605469 C150.77230582 234.1462818 157.6438218 225.48282405 164.87109375 217.05859375 C167.05225156 214.49355217 169.16417082 211.89262136 171.25 209.25 C174.9827283 204.53819542 178.88643917 199.98817267 182.81347656 195.4387207 C185.93422605 191.81673903 188.99250378 188.15480739 192 184.4375 C195.5452839 180.06817714 199.25880352 175.89330662 203.046875 171.734375 C206.24850493 168.13530136 209.28529579 164.41584685 212.28125 160.64453125 C214.3125 158.1875 214.3125 158.1875 216.09375 156.51171875 C217.8045663 155.02299718 217.8045663 155.02299718 219.3125 152.1875 C218.60541348 136.0167387 202.01726416 116.65662285 191.57421875 105.625 C189.3125 103.1875 189.3125 103.1875 187.3359375 100.64453125 C179.79162608 91.48358167 167.984766 83.26656382 157.3125 78.1875 C151.40083812 83.99210966 145.65638455 89.85269646 140.3125 96.1875 C141.67488524 98.91227048 142.97250063 98.93824096 145.8125 99.9375 C159.97346541 105.4490121 169.96922207 116.09259058 177.3125 129.1875 C177.83585938 130.10015625 178.35921875 131.0128125 178.8984375 131.953125 C184.67782364 142.69046169 188.64592315 154.96692444 189.3125 167.1875 C187.13671875 167.203125 187.13671875 167.203125 184.3125 166.1875 C182.22723827 163.65057709 180.71627658 160.8018556 179.125 157.9375 C169.16824148 140.8813011 156.67656071 122.60919993 136.796875 116.65234375 C129.67077324 115.31900081 122.43535734 115.55895257 115.51953125 117.69921875 C112.53234428 118.36010082 109.61859219 118.34732023 106.5625 118.4375 C97.60818486 119.00374287 89.91941627 122.09078614 83.5625 128.5625 C67.51657497 149.08088336 64.73907652 177.26506887 61.06274414 202.1574707 C60.91073799 203.17068138 60.91073799 203.17068138 60.75566101 204.20436096 C60.47849781 206.05464598 60.20659967 207.90571749 59.93505859 209.75683594 C59.28398693 213.34462377 58.36952843 216.7011411 57.3125 220.1875 C55.9925 220.1875 54.6725 220.1875 53.3125 220.1875 C51.72852744 211.36458246 50.95540879 202.83592287 51 193.875 C51.00563965 192.66368408 51.0112793 191.45236816 51.01708984 190.2043457 C51.34077961 165.68564691 55.35095365 141.31860589 65.9921875 119.07421875 C67.45114475 116.41342342 67.45114475 116.41342342 67.3125 114.1875 C58.50075759 110.12054196 50.30044374 109.81037095 41.125 113.125 C34.86276624 115.75134289 28.88931676 118.93910695 22.96020508 122.23999023 C17.61679184 125.1875 17.61679184 125.1875 14.3125 125.1875 C13.5430852 115.1423623 16.11821152 106.87447882 22.50390625 99.0078125 C29.594703 91.87107106 37.54311326 90.07562607 47.3125 89.1875 C43.31641927 85.07592561 39.09290444 81.30329085 34.75 77.5625 C34.09064453 76.99015625 33.43128906 76.4178125 32.75195312 75.828125 C17.58163201 62.71608866 0.06562702 77.35894579 -13.6875 89.1875 Z M263.3125 108.1875 C261.34754643 110.16347377 261.34754643 110.16347377 259.375 112.8125 C258.57835937 113.81925781 257.78171875 114.82601562 256.9609375 115.86328125 C256.31850098 116.67659912 256.31850098 116.67659912 255.66308594 117.50634766 C253.34250404 120.39491 250.92031892 123.1949608 248.5 126 C247.7411853 126.88196045 247.7411853 126.88196045 246.96704102 127.78173828 C245.93205706 128.98457069 244.89665473 130.18704323 243.86083984 131.38916016 C241.33957055 134.31752181 238.82641162 137.25282253 236.3125 140.1875 C235.3112247 141.35549171 234.3099226 142.52346045 233.30859375 143.69140625 C231.32048724 146.01075601 229.33360562 148.33114674 227.34765625 150.65234375 C218.93897237 160.47745998 210.47247931 170.25177638 201.98828125 180.01171875 C191.92277244 191.59722182 181.99284787 203.27679999 172.3125 215.1875 C171.28020006 216.44942505 170.2476304 217.7111295 169.21484375 218.97265625 C162.43286897 227.26852731 155.75189387 235.62135471 149.3125 244.1875 C148.52190186 245.23695801 148.52190186 245.23695801 147.71533203 246.30761719 C139.17424919 257.67785757 131.08188596 269.27728745 123.3125 281.1875 C128.00102575 290.80191357 136.0191738 298.4914748 143.3125 306.1875 C143.81023926 306.71923828 144.30797852 307.25097656 144.82080078 307.79882812 C161.49783922 325.52651465 181.71182567 339.44078549 205.3125 346.1875 C205.95960938 346.38069824 206.60671875 346.57389648 207.2734375 346.77294922 C227.87537622 352.72516029 251.87410636 352.80978516 272.3125 346.1875 C273.08062012 345.94612305 273.84874023 345.70474609 274.64013672 345.45605469 C305.68883023 335.4888787 330.81260754 315.54445294 346.5234375 286.72265625 C349.23492171 281.36481081 351.36561783 275.86213329 353.3125 270.1875 C353.663125 269.18460938 354.01375 268.18171875 354.375 267.1484375 C359.90937704 249.66903001 358.81441775 228.7645528 354.3125 211.1875 C354.05726563 210.13304687 353.80203125 209.07859375 353.5390625 207.9921875 C341.82113222 165.09811245 305.05397346 131.23131385 268.16015625 109.04296875 C266.19812157 107.97742359 266.19812157 107.97742359 263.3125 108.1875 Z " fill="#1E1C1B" transform="translate(100.6875,75.8125)"/>
<path d="M0 0 C2.81552584 1.21992655 5.43752777 2.58828927 8.09765625 4.1171875 C9.50724609 4.91382813 9.50724609 4.91382813 10.9453125 5.7265625 C27.23959941 15.49865204 38.30335477 32.27489957 42.91015625 50.6171875 C46.89420691 71.33425095 42.96151458 90.79961052 31.7578125 108.6796875 C14.8248139 133.54131368 -9.77691592 146.6733448 -38.65234375 152.9296875 C-58.81323113 156.2898354 -81.09755552 155.19334934 -98.83984375 144.3046875 C-105.79230603 139.30401738 -110.37795598 132.58320886 -111.90234375 124.1171875 C-112.63426342 116.16546758 -113.06387143 109.50118227 -107.90234375 103.1171875 C-103.54809819 98.35789585 -103.54809819 98.35789585 -99.92431641 97.82788086 C-94.19899058 97.83882918 -89.40352641 98.91734724 -83.96484375 100.6171875 C-63.40868874 106.47126261 -42.63738694 103.00453759 -23.90234375 93.1171875 C-21.11322693 91.3779321 -18.97170659 89.66705255 -16.90234375 87.1171875 C-16.47566406 86.60414063 -16.04898438 86.09109375 -15.609375 85.5625 C-11.24865565 78.86514946 -11.7516828 69.73768751 -12.90234375 62.1171875 C-14.61554861 54.91985035 -17.23675835 48.0069401 -19.90234375 41.1171875 C-20.16837402 40.42447754 -20.4344043 39.73176758 -20.70849609 39.01806641 C-21.7668868 36.27073944 -22.83806619 33.53190275 -23.95703125 30.80859375 C-26.56983543 23.36965953 -27.58472836 14.02180686 -24.27734375 6.6796875 C-18.90081608 -2.31814404 -9.44543372 -2.87303906 0 0 Z " fill="#E15949" transform="translate(386.90234375,242.8828125)"/>
<path d="M0 0 C8.99629894 4.89528339 17.07793916 10.52581147 25 17 C25.57008789 17.46567383 26.14017578 17.93134766 26.72753906 18.41113281 C56.05306161 42.56252631 82.49276533 74.6807987 86.83666992 113.80493164 C89.0766515 143.90907866 82.99336622 171.68858577 63 195 C62.31164062 195.80953125 61.62328125 196.6190625 60.9140625 197.453125 C40.75682444 220.51017625 11.66845425 237.04628821 -19.32958984 239.23510742 C-57.88519448 240.71883492 -90.08753123 229.45872956 -118.5 203.3828125 C-123.08820347 199.00968107 -127.5564921 194.5195375 -132 190 C-122.22458752 182.32094637 -108.57959228 177 -96 177 C-95.78085937 177.7734375 -95.56171875 178.546875 -95.3359375 179.34375 C-92.1438661 189.82827719 -88.44903765 196.33607175 -78.69140625 201.6875 C-54.54251655 213.46402676 -26.39079718 210.35149484 -1.69848633 201.96606445 C11.40544738 197.24126924 22.68248643 190.38113419 33 181 C33.65355469 180.41605469 34.30710937 179.83210937 34.98046875 179.23046875 C48.04154963 166.91903048 58.43826076 146.93470409 59.23828125 128.85546875 C59.76411108 106.98658163 54.15745628 88.31883308 39 72 C34.02871002 66.87495878 28.67336631 63.49133524 22.3203125 60.26171875 C20 59 20 59 18 57 C18.66 57 19.32 57 20 57 C18.8866499 53.0741845 18.8866499 53.0741845 17.76025391 49.15209961 C16.79402378 45.80792888 15.85268645 42.46170418 14.97265625 39.09375 C11.79948774 27.27648268 7.01128302 16.30582101 1.95214844 5.18212891 C1 3 1 3 0 0 Z " fill="#F17667" transform="translate(371,187)"/>
<path d="M0 0 C0.515625 0.66 1.03125 1.32 1.5625 2 C7.0194952 8.71630178 12.53973469 14.59112 19.3125 20 C20.06450684 20.61029053 20.81651367 21.22058105 21.59130859 21.84936523 C25.4149232 24.9469301 29.26670155 28.00828392 33.125 31.0625 C42.96583197 38.89157756 52.32697608 47.3266614 61.6015625 55.8125 C64.26888332 58.2452356 66.96238647 60.64129205 69.6953125 63 C71.62194541 64.67192551 73.52751051 66.3629887 75.4296875 68.0625 C76.6820029 69.16699416 77.93460919 70.2711586 79.1875 71.375 C79.78216064 71.9117334 80.37682129 72.4484668 80.98950195 73.00146484 C84.23209057 75.8361721 86.53028086 77.68013309 91 78 C91.33 76.845 91.66 75.69 92 74.5 C96.61819059 60.75383647 104.95480801 42.4061349 118 35 C121.9375 34.9375 121.9375 34.9375 125 36 C126.8868306 39.7736612 126.91428074 43.92492011 126 48 C124.390625 49.3125 124.390625 49.3125 122.3125 50.3125 C116.97880424 53.00286506 115.93328108 56.90155401 114.09765625 62.37109375 C113.73542969 63.56863281 113.37320313 64.76617187 113 66 C112.60683594 67.24910156 112.21367187 68.49820313 111.80859375 69.78515625 C109.48950392 77.25645874 109.48950392 77.25645874 109 85 C110.8871875 84.7834375 110.8871875 84.7834375 112.8125 84.5625 C113.52019531 84.48128906 114.22789062 84.40007812 114.95703125 84.31640625 C117.19396393 84.02829265 117.19396393 84.02829265 120 83 C133.86424101 81.7412492 147.50329395 84.26578303 158.703125 93.00390625 C169.17492388 102.10439813 179.02814566 113.33306814 183 127 C182.67 127.66 182.34 128.32 182 129 C181.39414062 128.11699219 180.78828125 127.23398438 180.1640625 126.32421875 C169.58756086 111.0897055 158.21052701 96.84891765 139 93 C136.73141615 92.88118258 134.45915993 92.82480585 132.1875 92.8125 C130.41439453 92.79123047 130.41439453 92.79123047 128.60546875 92.76953125 C124.97883529 92.87276646 124.97883529 92.87276646 121.53125 93.9921875 C117.6667182 95.09511804 114.32315021 95.23667676 110.3125 95.3125 C100.73122132 95.71843926 91.67191329 98.380197 84.578125 105.1640625 C68.29646377 124.10559908 64.48042672 151.09496382 61 175 C60.67 175 60.34 175 60 175 C58.67014506 151.00350641 62.84460021 124.16425768 74.21484375 102.734375 C75.80217617 99.69176522 76.43660691 97.49285525 76 94 C74.3970947 93.18501438 72.79262722 92.37310073 71.1875 91.5625 C70.29417969 91.11003906 69.40085937 90.65757812 68.48046875 90.19140625 C61.11995755 86.6560426 52.351547 86.86003237 44.6875 89.5 C37.26024278 92.54142877 30.12494605 96.31684094 23 100 C23.91826787 92.82081483 26.68532792 86.76408057 32.328125 82.05859375 C39.11415006 77.51633504 43.76265715 76.08141146 52 77 C56.4766825 78.3618058 60.71698813 80.12547226 65 82 C66.66448015 82.67210716 68.33037566 83.34077563 70 84 C70.495 82.02 70.495 82.02 71 80 C70.36835938 79.48953125 69.73671875 78.9790625 69.0859375 78.453125 C63.03930581 73.53914766 57.0904605 68.53073654 51.19262695 63.43994141 C47.70041238 60.43300798 44.16263851 57.50297105 40.5625 54.625 C24.64460998 41.66967149 6.45267654 26.17927936 0 6 C-0.25 2.4375 -0.25 2.4375 0 0 Z " fill="#7FAE5F" transform="translate(97,94)"/>
<path d="M0 0 C2.81552584 1.21992655 5.43752777 2.58828927 8.09765625 4.1171875 C9.50724609 4.91382813 9.50724609 4.91382813 10.9453125 5.7265625 C27.23959941 15.49865204 38.30335477 32.27489957 42.91015625 50.6171875 C46.89420691 71.33425095 42.96151458 90.79961052 31.7578125 108.6796875 C14.8248139 133.54131368 -9.77691592 146.6733448 -38.65234375 152.9296875 C-58.81323113 156.2898354 -81.09755552 155.19334934 -98.83984375 144.3046875 C-105.79230603 139.30401738 -110.37795598 132.58320886 -111.90234375 124.1171875 C-112.63426342 116.16546758 -113.06387143 109.50118227 -107.90234375 103.1171875 C-103.54809819 98.35789585 -103.54809819 98.35789585 -99.92431641 97.82788086 C-94.19899058 97.83882918 -89.40352641 98.91734724 -83.96484375 100.6171875 C-63.40868874 106.47126261 -42.63738694 103.00453759 -23.90234375 93.1171875 C-21.11322693 91.3779321 -18.97170659 89.66705255 -16.90234375 87.1171875 C-16.47566406 86.60414063 -16.04898438 86.09109375 -15.609375 85.5625 C-11.24865565 78.86514946 -11.7516828 69.73768751 -12.90234375 62.1171875 C-14.61554861 54.91985035 -17.23675835 48.0069401 -19.90234375 41.1171875 C-20.16837402 40.42447754 -20.4344043 39.73176758 -20.70849609 39.01806641 C-21.7668868 36.27073944 -22.83806619 33.53190275 -23.95703125 30.80859375 C-26.56983543 23.36965953 -27.58472836 14.02180686 -24.27734375 6.6796875 C-18.90081608 -2.31814404 -9.44543372 -2.87303906 0 0 Z M-19.20483398 8.98168945 C-22.46957588 18.97703329 -18.7473194 28.95352195 -15.08984375 38.2421875 C-2.53970111 71.14826763 -2.53970111 71.14826763 -9.63671875 87.00390625 C-16.85117388 99.05026496 -29.91838392 103.31026682 -42.86083984 106.61767578 C-56.76276833 109.96757981 -70.12885869 110.854975 -83.76171875 106.09375 C-89.05565066 104.44762689 -94.36299474 103.6399272 -99.90234375 104.1171875 C-103.49946591 106.60750284 -104.53614442 108.01858952 -105.90234375 112.1171875 C-106.80089824 120.55076323 -105.88346463 127.14120025 -100.90234375 134.1171875 C-92.41290977 143.73239424 -80.09182162 147.43133671 -67.57373047 148.27392578 C-39.4894781 149.38479166 -11.37602601 143.18333215 10.09765625 124.1171875 C10.77957031 123.57707031 11.46148437 123.03695312 12.1640625 122.48046875 C22.37049935 114.23143075 28.93678461 103.01660657 34.09765625 91.1171875 C34.75121094 89.61285156 34.75121094 89.61285156 35.41796875 88.078125 C41.28153812 72.20958412 39.04033383 54.22528524 32.77734375 38.8828125 C26.0019333 24.29531678 15.19667885 13.25410561 0.67578125 6.41796875 C-5.69257483 4.10283494 -14.89618143 2.11642979 -19.20483398 8.98168945 Z " fill="#221D1C" transform="translate(386.90234375,242.8828125)"/>
<path d="M0 0 C5.17000703 2.67452745 7.94407248 6.91424868 9.7421875 12.30859375 C11.18254118 26.13926259 8.20472016 35.77712412 -0.5703125 46.80859375 C-6.41115339 52.96730353 -13.96420741 57.39437797 -22.5078125 57.62109375 C-27.70336726 57.54569652 -31.40643001 56.92929448 -35.2578125 53.30859375 C-40.92733829 45.97069187 -42.02723121 39.47566815 -41.2578125 30.30859375 C-38.53491898 18.20319966 -31.43806746 9.10802193 -21.2578125 2.30859375 C-20.3503125 1.66921875 -19.4428125 1.02984375 -18.5078125 0.37109375 C-12.63415017 -1.54914201 -5.95320303 -1.82303968 0 0 Z " fill="#E87466" transform="translate(98.2578125,198.69140625)"/>
<path d="M0 0 C2.94251985 0.09808399 4.04237673 1.03766821 6.25 3 C8.67654066 7.15978399 9.10509768 10.30140286 8 15 C6.13800903 18.43363758 3.6449184 21.14313488 1 24 C0.52320801 24.51675293 0.04641602 25.03350586 -0.44482422 25.56591797 C-4.77010638 30.25061923 -4.77010638 30.25061923 -6.73535156 32.30761719 C-12.92321091 38.77827079 -12.92321091 38.77827079 -16 47 C-13.64484432 46.71507769 -11.29110566 46.42225086 -8.9375 46.125 C-8.28072266 46.04636719 -7.62394531 45.96773437 -6.94726562 45.88671875 C-3.55468901 45.45220155 -0.55121339 44.86428768 2.74609375 43.8671875 C5.81532503 43.0492171 7.11593699 42.8463748 10 44 C3.53147307 50.63205711 3.53147307 50.63205711 0.5625 52.6875 C0.046875 53.120625 -0.46875 53.55375 -1 54 C-1 55.32 -1 56.64 -1 58 C3.30844006 60.05766303 7.64123141 62.05119902 12 64 C13.15822266 64.52787109 13.15822266 64.52787109 14.33984375 65.06640625 C22.36156921 68.25354093 32.75098292 68.72174306 40.8125 65.5 C51.72926799 59.59353971 59.27734513 50.4476465 67 41 C68.18470831 44.55412492 67.49980563 45.63735639 65.9050293 48.88671875 C65.58574463 49.50160156 65.26645996 50.11648437 64.9375 50.75 C64.61241455 51.38035156 64.2873291 52.01070312 63.95239258 52.66015625 C58.5212204 62.91476132 51.56913188 68.56346513 40.75 72.875 C30.72230225 75.83370234 20.25985336 74.68780076 11 70 C6.95696682 67.5006704 3.55083242 64.78354545 0.125 61.5 C-11.23987956 51.02829525 -24.06596748 42.39968779 -37 34 C-34.455007 31.455007 -31.85083086 30.53558578 -28.5625 29.0625 C-17.30548657 23.66579794 -10.07551714 14.85254196 -3.55859375 4.43359375 C-2 2 -2 2 0 0 Z " fill="#7EAD5E" transform="translate(409,147)"/>
<path d="M0 0 C3.32998589 2.52168163 5.93975617 4.97256079 8.4375 8.3125 C17.10854429 19.37217159 26.72161373 29.58026288 38 38 C38.5146582 38.39493652 39.02931641 38.78987305 39.55957031 39.19677734 C56.49763123 52.16577025 74.43772691 59.783121 95 65 C95 65.33 95 65.66 95 66 C57.41434126 65.29446716 21.15481678 47.99223624 -4.8371582 21.36816406 C-6.23201017 19.91904168 -7.61717768 18.46060608 -9 17 C-7.68925635 12.53817564 -5.92933989 9.00381243 -3.375 5.125 C-2.74335938 4.15820312 -2.11171875 3.19140625 -1.4609375 2.1953125 C-0.73777344 1.10863281 -0.73777344 1.10863281 0 0 Z " fill="#DA5040" transform="translate(220,364)"/>
<path d="M0 0 C0.99 0.495 0.99 0.495 2 1 C-9.72900099 13.80752982 -9.72900099 13.80752982 -15.4375 19.40625 C-17.14377834 21.14665391 -18.72641627 22.96206898 -20.3125 24.8125 C-23.85753152 28.93110965 -27.69434445 32.71029139 -31.55859375 36.52734375 C-34.87118034 39.88233145 -37.94025287 43.41625948 -41 47 C-42.65079442 48.65079442 -44.63736179 48.22549447 -46.91015625 48.31640625 C-47.89951172 48.35830078 -48.88886719 48.40019531 -49.90820312 48.44335938 C-51.46958008 48.50233398 -51.46958008 48.50233398 -53.0625 48.5625 C-54.10728516 48.60568359 -55.15207031 48.64886719 -56.22851562 48.69335938 C-58.81886884 48.79981225 -61.40932186 48.9018276 -64 49 C-63.68937118 45.91250778 -63.41708793 44.39973208 -61.14013672 42.2175293 C-60.32818848 41.67523682 -59.51624023 41.13294434 -58.6796875 40.57421875 C-57.7633252 39.95063477 -56.84696289 39.32705078 -55.90283203 38.68457031 C-54.90364746 38.02553711 -53.90446289 37.36650391 -52.875 36.6875 C-50.7653689 35.25949286 -48.65600129 33.83109638 -46.546875 32.40234375 C-45.46083984 31.6738623 -44.37480469 30.94538086 -43.25585938 30.19482422 C-38.17348689 26.76871979 -33.15043054 23.25884786 -28.125 19.75 C-26.23047951 18.43227619 -24.33594845 17.11456759 -22.44140625 15.796875 C-14.93594354 10.56664313 -7.46364654 5.28967164 0 0 Z " fill="#649245" transform="translate(277,123)"/>
<path d="M0 0 C2.88651092 3.49101291 4.75956355 7.36817422 6.6875 11.43359375 C7.03127686 12.14854507 7.37505371 12.8634964 7.72924805 13.60011292 C8.82362278 15.8772912 9.91222177 18.15716419 11 20.4375 C12.0884455 22.71393218 13.17817823 24.98972153 14.27075195 27.26417542 C14.9489322 28.67647148 15.62467939 30.08993932 16.29760742 31.50474548 C17.66861511 34.36402864 19.0737946 37.11959137 20.73999023 39.81982422 C22 42 22 42 21.84765625 44.44921875 C20.88627319 47.3422286 19.73408171 50.05310815 18.4375 52.8125 C17.75494141 54.27623047 17.75494141 54.27623047 17.05859375 55.76953125 C16.70925781 56.50558594 16.35992187 57.24164063 16 58 C14.09326172 57.30834961 14.09326172 57.30834961 12 56 C11.09033203 53.81469727 11.09033203 53.81469727 10.5078125 51.06640625 C10.2804541 50.03717041 10.0530957 49.00793457 9.81884766 47.94750977 C9.47539307 46.27192993 9.47539307 46.27192993 9.125 44.5625 C8.87669434 43.41773193 8.62838867 42.27296387 8.37255859 41.09350586 C7.84488368 38.65875758 7.32375945 36.222582 6.80859375 33.78515625 C5.99462693 29.97484778 5.14423697 26.17448561 4.28125 22.375 C3.72903689 19.9375294 3.17694973 17.50003026 2.625 15.0625 C2.23078857 13.32238647 2.23078857 13.32238647 1.82861328 11.54711914 C1.58868652 10.47067139 1.34875977 9.39422363 1.1015625 8.28515625 C0.88838379 7.33519775 0.67520508 6.38523926 0.45556641 5.40649414 C0 3 0 3 0 0 Z " fill="#639045" transform="translate(169,106)"/>
<path d="M0 0 C2.8125 0 2.8125 0 6 1 C9.28306688 4.28306688 11.88983777 7.44833486 13 12 C12.45454545 18.54545455 12.45454545 18.54545455 11 20 C8.3125 20.5 8.3125 20.5 5 20 C1.22843998 16.75854404 -1.73381589 13.12611572 -2.16796875 8.02734375 C-2.18675199 6.01753694 -2.09560094 4.00761966 -2 2 C-1.34 1.34 -0.68 0.68 0 0 Z " fill="#231C1C" transform="translate(372,350)"/>
<path d="M0 0 C1.9375 1.8125 1.9375 1.8125 2.9375 4.3125 C2.9375 6.8125 2.9375 6.8125 1.6875 8.5625 C-2.86193863 11.81209902 -8.72329943 11.41267291 -14.0625 10.8125 C-17.25 8.8125 -17.25 8.8125 -19.0625 6.8125 C-18.80560052 3.64407307 -18.47979253 2.20287043 -16.125 0 C-10.74742473 -2.08518225 -5.37757527 -2.08518225 0 0 Z " fill="#231C1C" transform="translate(411.0625,304.1875)"/>
<path d="M0 0 C5.70292682 0.08161613 8.81549873 2.81549873 12.75 6.75 C14.3125 9.3125 14.3125 9.3125 14.125 12.0625 C13.3125 14.3125 13.3125 14.3125 12.3125 15.3125 C7.03217725 15.96096069 4.26513016 15.69627529 -0.0625 12.5 C-2.52823522 10.51071163 -3.897507 8.99748949 -5.6875 6.3125 C-4.98631777 0.4225693 -4.98631777 0.4225693 0 0 Z " fill="#211C1B" transform="translate(390.6875,329.6875)"/>
<path d="M0 0 C3.25666272 0.56149357 4.95623323 1.37229986 7 4 C8.66572225 9.37626215 8.99177004 14.97513618 6.5 20.0625 C6.005 20.701875 5.51 21.34125 5 22 C2.1875 21.9375 2.1875 21.9375 -1 21 C-4.11300251 16.01919599 -5.03316118 10.81832876 -4 5 C-2 1.9375 -2 1.9375 0 0 Z " fill="#201B1B" transform="translate(346,360)"/>
<path d="M0 0 C2.3359375 1.52734375 2.3359375 1.52734375 4 3 C3.6655974 6.09322404 3.4404882 7.58887768 1.125 9.75 C-2.49519527 11.87952663 -5.43920305 12.16004796 -9.5625 12.1875 C-11.01849609 12.20876953 -11.01849609 12.20876953 -12.50390625 12.23046875 C-15 12 -15 12 -17 10 C-17.5 7.125 -17.5 7.125 -17 4 C-12.30185827 -0.82511854 -6.48036595 -1.08658704 0 0 Z " fill="#201B1B" transform="translate(401,275)"/>
<path d="M0 0 C0.50449402 2.58252893 1.00374301 5.16588703 1.5 7.75 C1.71462891 8.84441406 1.71462891 8.84441406 1.93359375 9.9609375 C2.58888879 13.39343532 3 16.49169491 3 20 C0.09684274 18.66422819 -2.18861315 17.15608184 -4.6015625 15.06640625 C-5.25640625 14.49986328 -5.91125 13.93332031 -6.5859375 13.34960938 C-7.25882813 12.75986328 -7.93171875 12.17011719 -8.625 11.5625 C-9.305625 10.97662109 -9.98625 10.39074219 -10.6875 9.78710938 C-13.57345698 7.27472983 -15.85990469 5.21014296 -18 2 C-14.55062273 -1.44937727 -4.63127388 -0.09648487 0 0 Z " fill="#D8503F" transform="translate(170,134)"/>
<path d="M0 0 C2.98072928 4.47109392 2.60566629 8.75836952 2 14 C0.3125 17.625 0.3125 17.625 -2 20 C-4.75 20.875 -4.75 20.875 -7 21 C-8.95849665 19.12310738 -9.92102043 17.61352249 -10.26953125 14.90625 C-10.3666553 9.60857434 -9.86250043 5.5720244 -6.6875 1.1875 C-4.32788049 -0.47297299 -2.8164023 -0.43329266 0 0 Z " fill="#1D1B1A" transform="translate(321,361)"/>
<path d="M0 0 C2.76276177 0.52268466 5.3260876 1.10869587 8 2 C8 2.66 8 3.32 8 4 C6.59472656 5.20507812 6.59472656 5.20507812 4.640625 6.53125 C3.58488281 7.25248047 3.58488281 7.25248047 2.5078125 7.98828125 C1.76273438 8.48714844 1.01765625 8.98601562 0.25 9.5 C-0.47960937 9.99886719 -1.20921875 10.49773437 -1.9609375 11.01171875 C-5.23455675 13.23182781 -8.42722632 15.28808732 -12 17 C-11.80146068 12.73140463 -11.30469743 11.29792637 -8.1875 8.25 C-5 6 -5 6 -2.6875 4.9375 C-0.77876656 4.12099931 -0.77876656 4.12099931 -0.25 1.875 C-0.1675 1.25625 -0.085 0.6375 0 0 Z " fill="#D34E3E" transform="translate(229,141)"/>
<path d="M0 0 C3.96 0.33 7.92 0.66 12 1 C9.03 5.455 9.03 5.455 6 10 C3.09787714 6.61418999 1.70604525 4.26511313 0 0 Z " fill="#CD4D3D" transform="translate(189,133)"/>
<path d="M0 0 C0 0.33 0 0.66 0 1 C-2.20857055 0.85780436 -4.41684987 0.71108153 -6.625 0.5625 C-7.85476563 0.48128906 -9.08453125 0.40007812 -10.3515625 0.31640625 C-13.61532388 0.03336056 -16.77943859 -0.41038953 -20 -1 C-14.34011773 -5.00908327 -6.13481933 -1.64325518 0 0 Z " fill="#A44135" transform="translate(315,429)"/>
</svg>
